<?xml version="1.0" standalone="no"?>
<!DOCTYPE svg PUBLIC "-//W3C//DTD SVG 20010904//EN"
 "http://www.w3.org/TR/2001/REC-SVG-20010904/DTD/svg10.dtd">
<svg version="1.0" xmlns="http://www.w3.org/2000/svg"
 width="512.000000pt" height="512.000000pt" viewBox="0 0 512.000000 512.000000"
 preserveAspectRatio="xMidYMid meet">

<g transform="translate(0.000000,512.000000) scale(0.100000,-0.100000)"
fill="#000000" stroke="none">
<path d="M2300 5035 c-166 -37 -322 -110 -524 -245 -142 -95 -223 -139 -291
-160 -22 -7 -149 -16 -285 -20 -192 -7 -263 -13 -326 -29 -161 -40 -292 -117
-418 -245 -88 -89 -206 -248 -206 -277 0 -10 10 -24 22 -30 32 -17 4543 -8
4576 10 26 14 29 52 6 72 -9 8 -52 32 -95 54 -111 56 -231 144 -399 291 -172
150 -283 237 -365 287 -179 109 -383 142 -595 96 -266 -56 -300 -51 -483 71
-161 108 -233 131 -417 136 -93 3 -155 -1 -200 -11z"/>
<path d="M421 3714 c-19 -13 -21 -25 -21 -99 0 -102 4 -115 39 -115 43 0 51
17 51 103 0 107 -22 143 -69 111z"/>
<path d="M1448 3722 c-24 -5 -29 -32 -26 -132 3 -85 3 -85 31 -88 46 -6 57 12
57 94 0 105 -16 137 -62 126z"/>
<path d="M3491 3714 c-19 -13 -21 -25 -21 -99 0 -102 4 -115 39 -115 42 0 51
17 51 96 0 111 -23 150 -69 118z"/>
<path d="M4507 3717 c-15 -10 -17 -27 -15 -112 l3 -100 32 -3 c46 -5 57 22 49
122 -4 60 -10 84 -23 94 -21 15 -25 15 -46 -1z"/>
<path d="M2132 3690 c-265 -71 -467 -273 -593 -592 -51 -129 -91 -346 -104
-564 l-7 -112 -72 -48 c-98 -67 -259 -231 -332 -339 -116 -170 -201 -370 -246
-579 -19 -86 -22 -132 -22 -311 0 -180 3 -223 21 -302 40 -168 99 -288 181
-367 22 -22 39 -43 36 -48 -3 -4 0 -26 6 -49 36 -133 305 -263 545 -264 158 0
272 50 413 180 65 61 73 65 94 54 35 -19 127 -15 173 6 99 47 221 219 232 329
6 60 -15 148 -52 211 l-23 40 31 53 c18 28 34 52 37 52 3 0 19 -31 37 -69 33
-69 153 -244 290 -421 71 -91 73 -96 67 -136 -7 -46 34 -210 66 -262 10 -16
40 -40 67 -53 42 -21 65 -24 193 -27 193 -5 321 9 370 42 21 13 57 30 80 36
59 16 85 35 104 75 57 119 -51 274 -209 299 -43 7 -91 33 -149 79 -19 16 -53
31 -74 34 l-38 5 -23 117 c-98 512 -223 889 -321 974 -73 62 -166 71 -270 26
-37 -16 -49 -18 -72 -8 -48 20 -118 5 -238 -49 -62 -29 -114 -51 -115 -49 -3
3 -25 229 -25 250 0 15 11 17 78 17 264 1 460 131 600 400 85 163 131 325 153
540 27 274 -21 465 -141 561 -24 19 -68 60 -97 91 -70 72 -162 133 -255 166
-101 35 -288 42 -396 12z m594 -688 c-3 -48 -15 -123 -26 -168 -20 -87 -58
-194 -68 -194 -3 0 -16 9 -28 21 -43 40 -63 -14 -22 -58 22 -23 22 -24 5 -56
-10 -18 -24 -40 -32 -51 -14 -18 -15 -18 -45 8 -17 14 -42 29 -55 32 -77 19
-97 -28 -26 -62 66 -32 70 -49 19 -75 -102 -53 -222 -17 -342 103 -67 67 -98
82 -109 54 -6 -14 41 -98 62 -111 8 -4 1 -19 -19 -45 -16 -21 -44 -69 -62
-106 -27 -59 -33 -65 -42 -49 -6 10 -34 54 -63 96 l-52 78 45 75 c48 80 84
170 84 210 0 28 -12 39 -63 56 -75 24 -105 136 -52 198 51 61 106 41 140 -51
20 -56 28 -61 123 -77 163 -27 348 25 507 142 33 24 74 61 90 80 17 20 32 37
34 37 2 1 1 -38 -3 -87z m-943 -659 c35 -49 77 -113 93 -143 26 -51 29 -64 30
-177 l2 -123 49 -102 c45 -96 48 -108 46 -176 -2 -109 -35 -170 -136 -246 -42
-33 -80 -56 -84 -52 -4 4 -1 111 6 239 28 504 27 547 -25 649 -26 50 -85 114
-116 124 -20 6 -48 -11 -48 -29 0 -5 16 -28 36 -50 20 -22 47 -64 61 -93 42
-93 47 -162 28 -403 -21 -256 -16 -457 15 -601 l20 -95 -28 -19 c-15 -10 -66
-59 -114 -108 l-87 -88 -26 44 c-39 66 -83 196 -102 299 -14 74 -16 138 -13
327 7 479 8 455 -17 458 -28 4 -38 -14 -67 -138 -50 -203 -59 -532 -21 -740
28 -157 17 -202 -73 -309 -48 -56 -91 -81 -142 -81 -74 0 -160 64 -208 155
-27 50 -27 51 -27 265 0 170 4 233 18 300 88 410 343 784 635 930 77 39 165
69 203 69 22 1 38 -14 92 -86z m767 -678 c56 -29 147 -163 233 -345 28 -58 99
-253 158 -435 60 -181 109 -331 109 -332 0 -2 -8 -3 -17 -3 -10 -1 -42 -9 -71
-19 l-52 -18 -37 51 c-20 28 -75 101 -123 161 -195 248 -250 361 -250 512 0
51 -14 83 -36 83 -19 0 -33 -37 -37 -107 -4 -51 -13 -73 -82 -187 l-78 -130
-40 45 c-50 56 -107 139 -141 207 -26 51 -86 219 -86 241 0 14 142 120 232
172 79 46 244 118 271 119 10 0 31 -7 47 -15z m-602 -382 c34 -126 138 -303
247 -421 l66 -71 -23 -35 c-16 -25 -29 -34 -43 -31 -11 2 -44 7 -74 10 -56 6
-99 24 -119 48 -10 11 -9 22 3 50 8 20 15 51 15 69 0 78 -90 188 -154 188 -32
0 -35 3 -40 38 -14 95 -14 96 44 150 30 28 57 51 60 52 3 0 12 -21 18 -47z
m-66 -293 c33 -25 52 -73 44 -106 -4 -14 -41 -62 -84 -107 -42 -45 -85 -101
-96 -124 -23 -51 -39 -59 -80 -35 -67 39 -94 119 -61 181 28 55 209 209 246
211 4 0 18 -9 31 -20z m-481 -211 c51 -76 59 -92 59 -120 0 -28 45 -103 81
-135 49 -44 93 -64 142 -64 26 0 62 -7 80 -16 48 -25 127 -77 127 -84 0 -24
-135 -115 -215 -146 -107 -41 -306 -14 -460 62 -76 37 -101 55 -128 94 -26 37
-22 54 34 138 65 97 232 322 240 322 3 0 21 -23 40 -51z m565 -50 c32 -36 88
-58 173 -68 44 -6 92 -18 105 -26 34 -23 48 -62 36 -104 -23 -80 -94 -130
-163 -116 -78 17 -297 148 -297 178 0 21 103 157 119 157 5 0 16 -9 27 -21z
m1221 -279 c47 -74 56 -81 143 -106 108 -31 141 -51 163 -96 23 -47 11 -75
-37 -83 -19 -4 -114 -8 -213 -8 -160 -2 -182 0 -218 18 -32 17 -43 30 -63 79
-34 87 -39 146 -14 169 20 18 173 66 202 63 8 0 24 -17 37 -36z"/>
<path d="M2381 2776 c-19 -22 1 -59 46 -87 41 -25 77 -22 81 8 3 17 -4 24 -32
31 -20 6 -46 22 -59 37 -21 25 -24 26 -36 11z"/>
<path d="M932 2959 c-22 -8 -23 -12 -20 -111 l3 -103 30 -3 c40 -5 55 19 55
89 0 111 -19 146 -68 128z"/>
<path d="M3998 2959 c-15 -8 -18 -25 -18 -109 0 -84 3 -101 18 -108 30 -16 59
3 66 43 12 60 -3 164 -25 175 -21 12 -20 12 -41 -1z"/>
<path d="M416 2074 c-20 -19 -23 -183 -4 -202 17 -17 53 -15 68 3 18 22 10
193 -10 205 -22 14 -36 12 -54 -6z"/>
<path d="M3486 2074 c-20 -19 -23 -183 -4 -202 17 -17 53 -15 68 3 18 22 9
193 -11 206 -21 13 -36 11 -53 -7z"/>
<path d="M4507 2077 c-15 -10 -17 -27 -15 -112 3 -100 3 -100 29 -103 49 -6
62 21 56 115 -6 105 -26 133 -70 100z"/>
<path d="M3991 1286 c-8 -9 -11 -48 -9 -112 l3 -99 30 0 c44 0 57 33 50 125
-3 41 -11 80 -17 87 -14 17 -43 16 -57 -1z"/>
</g>
</svg>
